<?xml version="1.0" encoding="UTF-8" standalone="no"?>
<!-- Created with Inkscape (http://www.inkscape.org/) -->

<svg
   xmlns:dc="http://purl.org/dc/elements/1.1/"
   xmlns:cc="http://creativecommons.org/ns#"
   xmlns:rdf="http://www.w3.org/1999/02/22-rdf-syntax-ns#"
   xmlns:svg="http://www.w3.org/2000/svg"
   xmlns="http://www.w3.org/2000/svg"
   xmlns:sodipodi="http://sodipodi.sourceforge.net/DTD/sodipodi-0.dtd"
   xmlns:inkscape="http://www.inkscape.org/namespaces/inkscape"
   version="1.1"
   id="svg2"
   xml:space="preserve"
   width="497.97333"
   height="468.88"
   viewBox="0 0 497.97333 468.88"
   sodipodi:docname="scale.svg"
   inkscape:version="0.92.5 (2060ec1f9f, 2020-04-08)"><metadata
     id="metadata8"><rdf:RDF><cc:Work
         rdf:about=""><dc:format>image/svg+xml</dc:format><dc:type
           rdf:resource="http://purl.org/dc/dcmitype/StillImage" /><dc:title></dc:title></cc:Work></rdf:RDF></metadata><defs
     id="defs6" /><sodipodi:namedview
     pagecolor="#ffffff"
     bordercolor="#666666"
     borderopacity="1"
     objecttolerance="10"
     gridtolerance="10"
     guidetolerance="10"
     inkscape:pageopacity="0"
     inkscape:pageshadow="2"
     inkscape:window-width="1920"
     inkscape:window-height="1016"
     id="namedview4"
     showgrid="false"
     inkscape:zoom="2.0133083"
     inkscape:cx="277.21297"
     inkscape:cy="281.15355"
     inkscape:window-x="0"
     inkscape:window-y="27"
     inkscape:window-maximized="1"
     inkscape:current-layer="g10" /><g
     id="g10"
     inkscape:groupmode="layer"
     inkscape:label="ink_ext_XXXXXX"
     transform="matrix(1.3333333,0,0,-1.3333333,0,468.88)"><g
       id="g12"
       transform="scale(0.1)"><path
         d="m 1660.26,1742.77 h 413.79 v 544.64 h -413.79 v -544.64"
         style="fill:#d7e0ed;fill-opacity:1;fill-rule:evenodd;stroke:none"
         id="path14"
         inkscape:connector-curvature="0" /><path
         d="m 1660.26,2311.16 h 437.79 V 1719 h -461.78 v 23.77 544.63 23.76 h 23.99 z m 389.79,-47.52 h -365.78 v -497.12 h 365.78 v 497.12"
         style="fill:#013668;fill-opacity:1;fill-rule:nonzero;stroke:none"
         id="path16"
         inkscape:connector-curvature="0" /><path
         d="m 1380.2,2435.19 h 973.93 v -38.96 c 0,-142.69 -116.73,-259.42 -259.42,-259.42 h -455.1 c -142.68,0 -259.41,116.73 -259.41,259.42 v 38.96"
         style="fill:#cfd8e3;fill-opacity:1;fill-rule:evenodd;stroke:none"
         id="path18"
         inkscape:connector-curvature="0" /><path
         d="m 1380.2,2459.19 h 997.93 v -62.96 c 0,-77.97 -31.88,-148.83 -83.23,-200.18 -51.36,-51.36 -122.23,-83.24 -200.19,-83.24 h -455.1 c -77.97,0 -148.82,31.88 -200.18,83.24 -51.36,51.35 -83.23,122.21 -83.23,200.18 v 38.96 24 h 24 z m 949.93,-48 H 1404.2 v -14.96 c 0,-64.72 26.49,-123.57 69.16,-166.25 42.68,-42.68 101.53,-69.17 166.25,-69.17 h 455.1 c 64.72,0 123.58,26.49 166.25,69.17 42.68,42.68 69.17,101.53 69.17,166.25 v 14.96"
         style="fill:#013668;fill-opacity:1;fill-rule:nonzero;stroke:none"
         id="path20"
         inkscape:connector-curvature="0" /><path
         d="M 314.262,42.7344 H 3420.04 c 142.68,0 302.55,123.4496 259.41,259.4136 L 3290.33,1528.53 c -43.14,135.96 -116.88,259.4 -259.41,259.4 H 703.383 c -142.5,0 -216.324,-123.61 -259.41,-259.4 L 54.8516,302.148 C 11.7539,166.301 171.582,42.7344 314.262,42.7344"
         style="fill:#da6b61;fill-opacity:1;fill-rule:evenodd;stroke:none"
         id="path22"
         inkscape:connector-curvature="0" /><path
         d="M 314.262,66.7383 H 3420.04 c 25.87,0 52.46,4.4726 78.15,12.625 44.74,14.1914 86.44,39.3277 116.81,71.2347 29.12,30.574 47.61,67.285 47.61,106.011 0,12.532 -1.92,25.344 -6.03,38.313 L 3267.46,1521.31 c -20.69,65.21 -48.48,127.14 -87.66,172.16 -37.28,42.83 -85.51,70.46 -148.88,70.46 H 703.383 c -63.348,0 -111.602,-27.67 -148.891,-70.53 -39.183,-45.04 -66.976,-106.96 -87.64,-172.09 L 77.7305,294.922 c -4.1055,-12.949 -6.0313,-25.742 -6.0313,-38.25 0,-38.731 18.5078,-75.449 47.6368,-106.047 30.391,-31.926 72.105,-57.0703 116.859,-71.2695 25.664,-8.1446 52.219,-12.6172 78.067,-12.6172 z m 3105.778,-48 H 314.262 c -30.801,0 -62.266,5.2656 -92.504,14.8672 C 169.59,50.1563 120.652,79.8047 84.6445,117.629 47.375,156.777 23.6992,204.785 23.6992,256.672 c 0,17.273 2.6406,34.91 8.2774,52.691 L 421.098,1535.74 c 22.422,70.67 53.097,138.46 97.207,189.16 46.015,52.89 105.933,87.03 185.078,87.03 H 3030.92 c 79.16,0 139.06,-34.1 185.07,-86.97 44.1,-50.68 74.77,-118.47 97.22,-189.22 L 3702.33,309.363 c 5.64,-17.8 8.29,-35.457 8.29,-52.754 0,-51.882 -23.67,-99.879 -60.93,-139.011 -36,-37.8128 -84.92,-67.4417 -137.07,-83.9847 -30.26,-9.5977 -61.74,-14.875 -92.58,-14.875"
         style="fill:#013668;fill-opacity:1;fill-rule:nonzero;stroke:none"
         id="path24"
         inkscape:connector-curvature="0" /><path
         d="M 299.789,24.0547 H 3434.53 c 420.77,0 310.69,602.3593 0,602.3593 H 299.789 c -420.57,0 -310.8945,-602.3593 0,-602.3593"
         style="fill:#d87c56;fill-opacity:1;fill-rule:evenodd;stroke:none"
         id="path26"
         inkscape:connector-curvature="0" /><path
         d="M 299.789,48.1055 H 3434.53 c 128.5,0 202.58,60.3395 233.7,140.7815 13.32,34.465 19.06,72.746 18.06,111.738 -1.03,39.363 -8.94,79.387 -22.9,116.914 -37.84,101.824 -120.03,184.824 -228.86,184.824 H 299.789 C 171.309,602.363 97.2266,541.992 66.1094,461.516 52.7813,427.039 47.0352,388.77 48.0469,349.766 49.0625,310.391 56.9727,270.383 70.9219,232.852 108.746,131.074 190.914,48.1055 299.789,48.1055 Z M 3434.53,0 H 299.789 C 168.316,0 70.2578,97.0625 26.0117,216.121 10.2344,258.574 1.28516,303.926 0.128906,348.645 -1.03516,393.73 5.72656,438.289 21.3828,478.801 59.3125,576.895 147.793,650.48 299.789,650.48 H 3434.53 c 131.41,0 229.51,-97.101 273.77,-216.21 15.79,-42.454 24.74,-87.805 25.9,-132.524 1.17,-45.086 -5.59,-89.644 -21.25,-130.144 C 3675.04,73.5469 3586.55,0 3434.53,0"
         style="fill:#013668;fill-opacity:1;fill-rule:nonzero;stroke:none"
         id="path28"
         inkscape:connector-curvature="0" /><path
         d="m 3661.13,479.336 -0.06,0.098 c -1.6,2.863 -3.25,5.703 -4.93,8.515 l -0.44,0.735 c -0.78,1.304 -1.57,2.605 -2.36,3.894 l -0.38,0.586 -1.04,1.691 h -0.01 c -48.14,76.649 -123.59,131.571 -217.39,131.571 H 299.789 C 78.7383,626.426 4.23438,460.027 28.3672,302.148 h 3544.7528 106.33 30.7 c -1.76,61.18 -19.01,123.625 -49.02,177.188"
         style="fill:#d87c56;fill-opacity:1;fill-rule:evenodd;stroke:none"
         id="path30"
         inkscape:connector-curvature="0" /><path
         d="m 3640.22,467.703 -0.01,0.031 -0.04,-0.019 -2.26,3.992 c -1.21,2.121 -1.99,3.43 -2.31,3.969 l -0.09,0.086 -0.33,0.554 -0.01,-0.007 -1.18,1.953 0.03,0.019 -1.02,1.653 -0.02,-0.012 -0.36,0.586 -1.05,1.687 0.02,0.012 c -23.19,36.895 -53.09,68.234 -88.51,89.668 -31.85,19.277 -68.33,30.547 -108.56,30.547 H 299.789 c -19.566,0 -37.809,-1.367 -54.769,-3.953 C 175.5,587.844 126.309,556.445 94.6758,513.84 62.6953,470.75 48.0234,415.684 48.0234,358.535 c 0,-10.769 0.5235,-21.582 1.5352,-32.383 h 3523.5614 106.33 5.2 c -2.06,20.489 -5.92,41.004 -11.48,61.094 -7.76,27.996 -18.85,55.195 -32.95,80.371 v 0.086 z m 41.76,23.352 0.01,-0.028 0.04,0.028 c 15.9,-28.367 28.44,-59.18 37.26,-91.067 8.79,-31.746 13.83,-64.597 14.77,-97.183 l 0.7,-24.66 h -24.61 -30.7 H 3573.12 28.3672 7.77344 l -3.125,20.441 c -3.05078,19.988 -4.6289087,40.086 -4.6289087,59.949 0,66.797 17.6796687,131.887 56.2187687,183.797 38.8945,52.387 98.4337,90.844 181.6567,103.566 19.39,2.961 40.019,4.524 61.894,4.524 H 3434.52 c 49.43,0 94.23,-13.828 133.32,-37.481 38.32,-23.195 70.98,-55.839 96.96,-94.082 h 0.39 l 7.07,-11.347 1.06,-1.692 0.36,-0.586 0.09,-0.183 1.19,-1.946 0.09,-0.085 1.18,-1.954 0.09,-0.199 0.44,-0.73 -0.03,-0.02 2.62,-4.402 c 1.41,-2.434 2.25,-3.891 2.63,-4.563 v -0.097"
         style="fill:#013668;fill-opacity:1;fill-rule:nonzero;stroke:none"
         id="path32"
         inkscape:connector-curvature="0" /><path
         d="m 818.047,3483.83 c 0,0 -213.379,-809.06 622.363,-1111.35 h 853.51 c 835.73,302.29 622.35,1111.35 622.35,1111.35 l -1049.11,8.89 -1049.113,-8.89"
         style="fill:#92d3cd;fill-opacity:1;fill-rule:evenodd;stroke:none"
         id="path34"
         inkscape:connector-curvature="0" /><path
         d="M 837.191,3460.08 C 812.27,3341.79 705.355,2666.46 1444.59,2396.48 h 845.15 c 739.23,269.98 632.31,945.31 607.39,1063.6 l -1029.97,8.73 -1029.969,-8.73 z M 1432.25,2349.98 C 575.934,2659.71 794.199,3487.25 794.801,3489.64 l 4.515,17.93 18.543,0.16 1049.121,8.9 h 0.37 l 1049.11,-8.9 18.54,-0.16 4.53,-17.93 c 0.59,-2.39 218.86,-829.93 -637.46,-1139.66 l -8.15,-1.5 h -853.51 l -8.16,1.5"
         style="fill:#013668;fill-opacity:1;fill-rule:nonzero;stroke:none"
         id="path36"
         inkscape:connector-curvature="0" /><path
         d="m 1867.16,757.512 c 284.39,0 516.33,204.812 516.33,455.938 0,251.12 -231.94,455.94 -516.33,455.94 -284.38,0 -516.32,-204.82 -516.32,-455.94 0,-251.126 231.94,-455.938 516.32,-455.938"
         style="fill:#f8e29e;fill-opacity:1;fill-rule:evenodd;stroke:none"
         id="path38"
         inkscape:connector-curvature="0" /><path
         d="m 1867.16,1693.39 c 148.54,0 283.23,-53.37 380.94,-139.64 98.48,-86.96 159.38,-207.27 159.38,-340.3 0,-133.04 -60.9,-253.352 -159.38,-340.313 -97.71,-86.274 -232.4,-139.629 -380.94,-139.629 -148.53,0 -283.24,53.355 -380.95,139.629 -98.47,86.961 -159.38,207.273 -159.38,340.313 0,133.03 60.91,253.34 159.38,340.3 97.71,86.27 232.42,139.64 380.95,139.64 z m 349.26,-175.45 c -89.18,78.74 -212.65,127.44 -349.26,127.44 -136.62,0 -260.09,-48.7 -349.25,-127.44 -88.4,-78.06 -143.07,-185.73 -143.07,-304.49 0,-118.77 54.67,-226.446 143.07,-304.497 89.16,-78.75 212.63,-127.449 349.25,-127.449 136.61,0 260.08,48.699 349.26,127.449 88.39,78.051 143.07,185.727 143.07,304.497 0,118.76 -54.68,226.43 -143.07,304.49"
         style="fill:#013668;fill-opacity:1;fill-rule:nonzero;stroke:none"
         id="path40"
         inkscape:connector-curvature="0" /><path
         d="m 1863.27,1510.02 61.79,-355.08 h -123.59 l 61.8,355.08 v 0"
         style="fill:#013668;fill-opacity:1;fill-rule:nonzero;stroke:none"
         id="path42"
         inkscape:connector-curvature="0" /><path
         d="m 1892.69,1591.41 c 0,16.25 -13.17,29.42 -29.42,29.42 -16.24,0 -29.41,-13.17 -29.41,-29.42 v -15.45 c 0,-16.24 13.17,-29.42 29.41,-29.42 16.25,0 29.42,13.18 29.42,29.42 v 15.45"
         style="fill:#013668;fill-opacity:1;fill-rule:nonzero;stroke:none"
         id="path44"
         inkscape:connector-curvature="0" /><path
         d="m 2096.68,1524.13 c 8.56,13.77 4.34,31.89 -9.43,40.45 -13.77,8.56 -31.87,4.35 -40.44,-9.42 l -8.34,-13.39 c -8.56,-13.77 -4.35,-31.88 9.42,-40.44 13.77,-8.56 31.88,-4.36 40.45,9.41 l 8.34,13.39"
         style="fill:#013668;fill-opacity:1;fill-rule:nonzero;stroke:none"
         id="path46"
         inkscape:connector-curvature="0" /><path
         d="m 2238.14,1372.36 c 14.28,7.6 19.68,25.35 12.06,39.63 -7.61,14.28 -25.36,19.68 -39.64,12.06 l -14.44,-7.73 c -14.28,-7.62 -19.68,-25.36 -12.07,-39.64 7.61,-14.28 25.37,-19.68 39.65,-12.06 l 14.44,7.74"
         style="fill:#013668;fill-opacity:1;fill-rule:nonzero;stroke:none"
         id="path48"
         inkscape:connector-curvature="0" /><path
         d="m 2280.21,1175.57 c 16.24,0 29.42,13.16 29.42,29.41 0,16.24 -13.18,29.41 -29.42,29.41 h -16.68 c -16.24,0 -29.41,-13.17 -29.41,-29.41 0,-16.25 13.17,-29.41 29.41,-29.41 h 16.68"
         style="fill:#013668;fill-opacity:1;fill-rule:nonzero;stroke:none"
         id="path50"
         inkscape:connector-curvature="0" /><path
         d="m 2210.56,985.906 c 14.28,-7.617 32.03,-2.215 39.64,12.063 7.62,14.281 2.22,32.031 -12.06,39.651 l -14.44,7.72 c -14.28,7.62 -32.04,2.22 -39.65,-12.06 -7.61,-14.28 -2.21,-32.03 12.07,-39.647 l 14.44,-7.727"
         style="fill:#013668;fill-opacity:1;fill-rule:nonzero;stroke:none"
         id="path52"
         inkscape:connector-curvature="0" /><path
         d="m 2046.81,854.805 c 8.57,-13.77 26.67,-17.989 40.44,-9.422 13.77,8.562 17.99,26.68 9.43,40.445 l -8.34,13.391 c -8.57,13.769 -26.68,17.988 -40.45,9.414 -13.77,-8.567 -17.98,-26.668 -9.42,-40.442 l 8.34,-13.386"
         style="fill:#013668;fill-opacity:1;fill-rule:nonzero;stroke:none"
         id="path54"
         inkscape:connector-curvature="0" /><path
         d="m 1833.86,818.547 c 0,-16.25 13.17,-29.414 29.41,-29.414 16.25,0 29.42,13.164 29.42,29.414 v 15.457 c 0,16.238 -13.17,29.414 -29.42,29.414 -16.24,0 -29.41,-13.176 -29.41,-29.414 v -15.457"
         style="fill:#013668;fill-opacity:1;fill-rule:nonzero;stroke:none"
         id="path56"
         inkscape:connector-curvature="0" /><path
         d="m 1629.87,885.828 c -8.57,-13.765 -4.35,-31.883 9.42,-40.445 13.77,-8.567 31.88,-4.348 40.44,9.422 l 8.35,13.386 c 8.56,13.774 4.34,31.875 -9.42,40.442 -13.77,8.574 -31.88,4.355 -40.45,-9.414 l -8.34,-13.391"
         style="fill:#013668;fill-opacity:1;fill-rule:nonzero;stroke:none"
         id="path58"
         inkscape:connector-curvature="0" /><path
         d="m 1488.4,1037.62 c -14.27,-7.62 -19.67,-25.37 -12.06,-39.651 7.62,-14.278 25.36,-19.68 39.64,-12.063 l 14.45,7.727 c 14.28,7.617 19.68,25.367 12.06,39.647 -7.61,14.28 -25.36,19.68 -39.64,12.06 l -14.45,-7.72"
         style="fill:#013668;fill-opacity:1;fill-rule:nonzero;stroke:none"
         id="path60"
         inkscape:connector-curvature="0" /><path
         d="m 1446.33,1234.39 c -16.24,0 -29.41,-13.17 -29.41,-29.41 0,-16.25 13.17,-29.41 29.41,-29.41 h 16.68 c 16.25,0 29.42,13.16 29.42,29.41 0,16.24 -13.17,29.41 -29.42,29.41 h -16.68"
         style="fill:#013668;fill-opacity:1;fill-rule:nonzero;stroke:none"
         id="path62"
         inkscape:connector-curvature="0" /><path
         d="m 1515.98,1424.05 c -14.28,7.62 -32.02,2.22 -39.64,-12.06 -7.61,-14.28 -2.21,-32.03 12.06,-39.63 l 14.45,-7.74 c 14.28,-7.62 32.03,-2.22 39.64,12.06 7.62,14.28 2.22,32.02 -12.06,39.64 l -14.45,7.73"
         style="fill:#013668;fill-opacity:1;fill-rule:nonzero;stroke:none"
         id="path64"
         inkscape:connector-curvature="0" /><path
         d="m 1679.73,1555.16 c -8.56,13.77 -26.67,17.98 -40.44,9.42 -13.77,-8.56 -17.99,-26.68 -9.42,-40.45 l 8.34,-13.39 c 8.57,-13.77 26.68,-17.97 40.45,-9.41 13.76,8.56 17.98,26.67 9.42,40.44 l -8.35,13.39"
         style="fill:#013668;fill-opacity:1;fill-rule:nonzero;stroke:none"
         id="path66"
         inkscape:connector-curvature="0" /></g></g></svg>